PathFileType	3	(X/Y/Z)	D:\minhoCalibration\240510\subject3_KPNP\preferred\preferred16.trc
DataRate	CameraRate	NumFrames	NumMarkers	Units	OrigDataRate	OrigDataStartFrame	OrigNumFrames
200.0	200.0	36	10	mm	200.0	300	136	
Frame#	Time	Left_Ankle_Outer1			Left_Ankle_Inner1			Left_Knee_Outer1			Left_Knee_Inner1			Left_Wrist1			Right_Wrist1			Right_Knee_Inner1			Right_Knee_Outer1			Right_Ankle_Inner1			Right_Ankle_Outer1			
		X1	Y1	Z1	X2	Y2	Z2	X3	Y3	Z3	X4	Y4	Z4	X5	Y5	Z5	X6	Y6	Z6	X7	Y7	Z7	X8	Y8	Z8	X9	Y9	Z9	X10	Y10	Z10	
300	1.49	-333.11499	107.18658	-522.31805	-388.08746	124.98209	-513.57861	-221.47673	531.2038	-434.15604	-306.71136	537.96008	-383.4935	-176.45297	917.96301	-606.67609	-477.67783	1095.6858	-481.39694	-358.19046	962.70532	-106.47932	-459.47101	1007.7995	-122.24406	-392.53311	844.91571	298.45709	-485.6185	887.50189	292.07056
301	1.495	-332.2963	105.18663	-523.20483	-387.15973	123.35973	-515.15625	-221.08768	530.67871	-435.52383	-306.97842	536.85919	-385.25092	-174.8564	919.1449	-604.39124	-481.73578	1090.7389	-481.15738	-361.05289	955.02289	-107.0675	-461.87866	999.8078	-122.16054	-399.94321	822.34485	292.5289	-495.45874	863.71606	286.694
302	1.5	-331.02969	102.97176	-524.47961	-385.86349	121.12294	-516.92889	-221.1404	529.85394	-436.70816	-307.53677	535.64453	-387.32297	-173.18924	920.21918	-602.18109	-485.64499	1085.3171	-480.68411	-364.11551	947.25775	-107.39244	-465.1203	992.28033	-122.15854	-409.89621	800.8703	288.03329	-504.85931	839.37213	280.30386
303	1.505	-329.6915	100.54478	-525.93231	-384.62024	118.65569	-518.97009	-221.42282	528.88312	-437.84174	-308.49371	534.35486	-389.58844	-171.61409	920.94348	-600.05591	-489.74472	1079.6053	-480.99475	-367.23492	939.50195	-107.63921	-468.99515	985.38196	-122.07495	-417.44394	777.03461	280.4646	-514.29858	814.12427	272.77026
304	1.51	-328.16919	97.977547	-527.52515	-383.20074	116.21148	-521.40692	-221.76462	527.76013	-439.08804	-309.7847	532.7417	-391.98486	-170.10841	921.46277	-597.91498	-493.51846	1073.5157	-481.11652	-370.453	931.81683	-107.82303	-472.6069	978.28784	-122.27858	-425.87231	753.35968	271.79416	-523.2171	787.82886	263.70328
305	1.515	-326.87546	95.415955	-528.89893	-381.85403	113.56025	-523.76764	-222.17075	526.42487	-440.42679	-311.21671	530.69629	-394.97498	-168.71291	921.63458	-595.86462	-496.96762	1067.2285	-481.3187	-373.7821	924.14886	-107.93119	-475.99402	970.66913	-123.0645	-434.93079	728.80804	263.24399	-532.65503	761.66412	253.67715
306	1.52	-325.47107	92.934639	-530.1485	-380.67499	111.22467	-526.20764	-222.93677	524.7121	-441.73068	-312.94806	528.43964	-398.10031	-167.44626	921.55322	-593.82788	-500.26364	1060.6742	-481.79398	-377.1377	916.56342	-108.15467	-479.93536	962.27765	-123.90781	-443.51843	703.97894	253.00276	-541.68524	735.11365	242.22578
307	1.525	-324.3736	90.609856	-531.23218	-379.65134	108.67757	-528.3526	-223.83305	522.77319	-443.08771	-314.81708	525.7052	-401.4902	-166.21022	921.15259	-591.86462	-503.0777	1054.1189	-482.4552	-380.67947	908.99261	-108.32935	-483.93985	953.44348	-124.93839	-452.42627	679.12262	241.17482	-551.26245	708.67249	229.74458
308	1.53	-323.64752	88.367691	-532.22284	-378.95468	106.2902	-530.32635	-224.52158	520.71918	-444.32742	-316.6297	522.89331	-405.26379	-165.06549	920.56897	-589.95117	-505.35553	1047.4969	-483.31827	-384.09213	901.18317	-108.78715	-488.33295	943.51746	-126.33264	-461.25937	653.6792	228.53877	-560.55634	681.93658	215.68994
309	1.535	-322.95312	86.532639	-533.23779	-378.6691	104.1241	-531.91003	-225.90921	518.40039	-445.60458	-318.9902	520.2099	-408.31525	-163.92064	919.69336	-588.13165	-506.85452	1040.8674	-484.5155	-387.70233	892.97101	-109.36967	-493.17993	933.3457	-127.96864	-470.07602	628.05182	215.01872	-568.81012	654.90491	200.88544
310	1.54	-323.64105	84.575996	-533.49146	-378.94461	102.07345	-533.07373	-226.7854	516.19312	-446.36996	-321.04953	517.58203	-412.05249	-162.72852	918.6001	-586.43738	-508.51892	1034.6133	-486.12524	-391.78448	883.98328	-110.09068	-497.7905	922.61005	-130.17744	-479.10602	602.63489	199.99594	-577.40948	628.62073	184.27101
311	1.545	-324.45853	83.207603	-533.90759	-379.64444	100.60229	-534.05524	-228.10387	513.89655	-447.26868	-323.44284	515.03394	-415.45633	-161.90773	917.37408	-584.74567	-509.20587	1028.6351	-487.84033	-395.63419	874.52826	-111.1563	-502.51859	911.60291	-132.83304	-487.64389	577.23828	183.50528	-585.93915	603.0993	166.62495
312	1.55	-325.85483	82.037094	-534.31635	-381.03745	98.976486	-534.58887	-229.03191	511.92932	-447.56448	-326.28665	512.96936	-417.9028	-161.34189	915.76038	-583.01147	-509.66525	1022.6997	-489.67206	-399.86798	864.08966	-112.42602	-506.73776	900.06268	-136.00595	-495.91351	552.68988	166.10773	-593.85333	577.43335	147.44934
313	1.555	-327.1824	81.151917	-534.87366	-382.67606	97.52774	-534.99323	-230.74728	510.13876	-447.94122	-328.28989	511.96414	-419.96417	-160.41576	914.26978	-581.53503	-510.2554	1017.7255	-491.59775	-404.62488	852.86444	-113.80531	-511.73676	889.29016	-138.46359	-507.39319	527.2926	149.65703	-601.68109	553.05676	127.55164
314	1.56	-329.18411	80.053894	-535.02338	-384.71027	96.314484	-535.19934	-232.11786	508.7915	-447.79086	-330.69638	510.73004	-421.86905	-159.93335	912.61615	-579.96106	-510.49615	1013.1614	-493.11038	-408.41443	841.81714	-116.07587	-515.49347	877.75146	-142.47723	-512.23468	502.80316	127.65631	-608.94403	528.91937	106.5451
315	1.565	-331.76791	78.913277	-535.00079	-386.98871	94.946747	-535.24811	-234.05156	507.64929	-447.47968	-332.59436	510.30194	-423.08987	-159.47379	910.90887	-578.38794	-511.19583	1008.1826	-495.56589	-412.59207	830.18365	-118.37167	-519.97485	866.80109	-145.5903	-519.18689	479.3197	106.45701	-615.86462	505.05835	84.353889
316	1.57	-333.68552	78.105675	-535.47119	-389.25308	93.6166	-535.36493	-236.09776	506.97159	-447.42487	-334.81161	509.6246	-423.6619	-159.11877	909.22784	-577.01508	-511.96838	1004.5201	-497.52536	-416.81308	818.13519	-120.83212	-523.71967	855.49988	-148.93309	-525.96594	455.91885	84.110161	-622.20593	482.24451	60.665211
317	1.575	-336.37625	76.895714	-535.41138	-391.53998	92.176003	-535.56622	-238.24196	506.33426	-446.93903	-336.82364	509.33331	-424.38681	-159.04836	907.48615	-575.30884	-512.87598	1001.087	-499.50342	-421.32498	805.65656	-123.84408	-527.62317	843.79205	-152.73051	-531.80249	433.1745	60.713394	-628.11151	460.14905	36.763741
318	1.58	-338.34714	75.895119	-535.72577	-393.64932	90.511192	-535.90607	-240.14539	505.80829	-446.52756	-339.24542	508.4592	-424.7518	-159.10779	906.086	-573.77521	-513.73291	997.93738	-501.62936	-425.60104	792.99432	-127.46645	-531.02637	832.08887	-157.09077	-537.65271	411.11273	36.901619	-633.00299	438.81439	11.899344
319	1.585	-340.22739	74.699303	-535.95001	-395.40411	88.753197	-536.37128	-242.30029	505.02753	-446.22974	-340.82336	508.27145	-425.94202	-159.22281	904.55566	-572.13348	-514.58118	995.03589	-503.58276	-430.15863	779.89264	-131.72496	-534.83545	820.3833	-161.46646	-542.88733	390.15155	11.687753	-637.55591	418.53339	-13.792513
320	1.59	-340.8175	73.757645	-536.89825	-396.88342	86.702362	-537.01624	-244.46387	503.97311	-446.07104	-343.10239	507.43872	-426.92206	-159.53656	903.28339	-570.42566	-515.26031	992.15747	-505.79135	-434.69217	766.62012	-136.56027	-538.6413	808.14221	-166.75116	-548.96631	369.26273	-12.818871	-641.38403	398.77707	-40.245838
321	1.595	-342.80173	71.565224	-536.76367	-398.07275	84.543488	-537.76453	-246.64822	502.65723	-446.15842	-345.83347	506.20996	-428.74271	-159.91611	901.81927	-568.63861	-515.7193	988.89056	-508.30948	-439.12454	753.15143	-141.85829	-543.20715	796.86029	-171.34685	-549.85272	350.43298	-41.362347	-644.61481	379.72626	-67.326706
322	1.6	-342.42438	70.407692	-537.84064	-398.97897	82.231728	-538.55267	-248.9482	501.28217	-446.65784	-347.82672	505.4118	-429.80743	-160.52774	900.31573	-566.58246	-516.3031	986.02936	-510.60522	-443.71277	739.32684	-147.55106	-546.9035	785.18988	-177.35452	-552.24683	333.05646	-68.311768	-647.33282	361.98077	-94.895645
323	1.605	-343.81537	67.651711	-537.90057	-399.73669	79.794777	-539.43762	-250.7338	499.40421	-447.34409	-350.00674	503.54779	-433.14566	-159.92674	899.315	-565.08844	-517.30066	983.61792	-512.18768	-447.81296	725.2912	-153.65338	-550.92108	773.12823	-183.83308	-554.42487	315.6163	-96.345474	-649.34082	345.3689	-122.90372
324	1.61	-344.92734	65.540146	-538.33594	-400.90121	77.515785	-540.22498	-252.39551	497.6481	-448.10712	-352.36368	501.47186	-434.69778	-160.18355	898.11871	-563.06451	-517.73157	980.26245	-514.99182	-452.34036	711.29944	-160.97397	-555.08618	761.72577	-190.10263	-555.9386	299.39923	-124.91814	-650.74426	329.24359	-151.56418
325	1.615	-346.11359	64.428642	-539.06085	-402.59354	75.882233	-540.63489	-253.88927	495.67706	-448.74451	-354.18329	499.17746	-437.68277	-160.20918	897.08337	-561.09454	-518.48749	977.36401	-517.37012	-456.60971	697.02325	-168.47446	-559.24457	749.33295	-197.12372	-556.8905	284.05087	-153.63226	-651.28674	314.34436	-181.40312
326	1.62	-346.79559	64.492607	-539.76147	-404.35727	74.903618	-540.797	-254.95995	493.78619	-449.36722	-355.81149	496.59048	-440.89502	-160.2979	896.08783	-559.18994	-519.39172	974.28809	-519.72064	-460.82346	682.76154	-176.40935	-563.16357	737.81921	-204.10376	-557.091	269.78253	-182.62605	-651.81592	300.18286	-210.69252
327	1.625	-347.7764	64.218094	-539.96381	-405.2583	74.434502	-540.81183	-255.46187	492.12711	-449.65518	-356.90811	494.96292	-443.37878	-161.33437	894.84851	-556.83923	-520.34979	971.1864	-522.28497	-464.95886	668.51166	-184.80333	-567.50256	725.46545	-211.53508	-556.71948	256.56094	-211.82713	-650.78943	288.03046	-240.18304
328	1.63	-348.48444	63.853672	-539.60431	-405.47116	74.312157	-540.61237	-255.92744	490.64218	-449.44205	-358.14563	492.90298	-446.45621	-161.19627	894.35883	-554.87878	-521.30066	967.79272	-525.13049	-469.09299	654.33386	-193.62032	-571.82172	712.43805	-219.93608	-555.55756	244.27084	-240.91917	-649.35535	275.87061	-270.67352
329	1.635	-348.4418	63.520073	-539.4278	-405.37567	74.034943	-540.37775	-256.06964	490.086	-448.85083	-359.12183	491.53821	-447.78622	-161.36301	893.90088	-552.93707	-522.35394	964.26013	-528.05328	-473.15692	640.28577	-203.06358	-575.91333	700.46924	-228.33827	-553.39642	233.27538	-269.57684	-648.172	264.90103	-299.50723
330	1.64	-347.7464	63.735836	-539.37927	-405.03592	73.947647	-540.2702	-255.94408	490.53476	-447.80408	-359.17169	491.59525	-448.04062	-161.2887	893.98737	-550.89575	-523.64246	960.23499	-531.25287	-477.33328	626.54889	-213.08807	-580.50909	687.78302	-237.483	-551.23773	223.13661	-298.38629	-645.98254	255.06255	-329.54849
331	1.645	-347.45578	63.509441	-539.24561	-404.48727	74.210381	-540.19092	-255.56281	491.74585	-446.62677	-358.48822	492.82288	-447.09442	-162.22327	894.02893	-548.78656	-524.9942	957.03308	-533.54816	-481.35318	613.16522	-223.74908	-584.992	675.40112	-247.18275	-548.74963	214.02432	-326.91174	-642.32745	246.47076	-359.15646
332	1.65	-346.79602	63.709446	-539.11975	-403.87347	74.407234	-540.03235	-255.25606	493.03189	-445.0462	-358.1871	493.66541	-445.4989	-163.07863	894.52765	-546.81812	-526.40204	953.09485	-536.55554	-484.86853	600.24023	-234.82095	-589.01636	662.79059	-257.91928	-545.62079	205.86121	-355.09518	-639.9649	238.67778	-387.09808
333	1.655	-346.42905	63.693619	-538.94128	-403.21136	74.536797	-539.86499	-255.05219	494.32285	-443.80139	-357.99863	494.55322	-443.28195	-164.6813	895.0025	-544.7832	-528.14301	948.97577	-540.0033	-488.67316	588.18896	-247.1584	-592.88428	650.8537	-268.76126	-542.81207	197.45184	-383.46368	-635.42932	230.6097	-416.68365
334	1.66	-345.74179	64.036263	-538.75494	-402.66473	74.802345	-539.77094	-254.70703	495.50473	-442.91736	-356.14905	496.13794	-440.90298	-166.05237	895.9563	-542.78943	-529.56854	945.39923	-543.26453	-491.80353	576.44513	-259.60461	-596.65961	639.62164	-279.78937	-539.39392	188.9552	-412.24854	-631.23126	224.81233	-444.96704
335	1.665	-345.38675	64.040878	-538.70807	-402.0856	75.346657	-539.91266	-254.71324	496.23151	-442.30862	-355.00943	497.09409	-439.14624	-167.49167	897.03693	-540.88757	-531.41699	942.08398	-546.7417	-494.564	565.10333	-272.49832	-600.00305	628.56171	-291.88507	-535.21661	183.01639	-439.19165	-626.46216	219.35457	-472.95505
